<svg width="1476" height="800" viewBox="0 0 1476 800" fill="none" xmlns="http://www.w3.org/2000/svg">
<g clip-path="url(#clip0)">
<rect width="1476" height="800" fill="#080720" fill-opacity="0.94"/>
<path d="M761.962 222.963C767.844 221.331 774.042 220.412 780.473 220.412C794.757 220.412 808.348 224.666 819.773 232.715C830.172 240.038 844.863 237.979 852.584 228.118C860.306 218.255 858.138 204.32 847.738 196.994C828.166 183.209 804.906 175.923 780.473 175.923C763.032 175.923 746.506 179.696 731.746 186.423L761.962 222.963Z" fill="#1B2159"/>
<path d="M817.531 334.843C806.592 341.9 793.776 345.63 780.473 345.63C744.074 345.63 714.466 317.545 714.466 283.022C714.466 279.422 714.858 275.914 715.476 272.477L681.55 231.45C672.643 246.758 667.56 264.334 667.56 283.022C667.56 342.076 718.211 390.121 780.473 390.121C803.222 390.121 825.158 383.725 843.91 371.629C854.622 364.72 857.397 350.885 850.115 340.727C842.833 330.568 828.244 327.932 817.531 334.843Z" fill="#1B2159"/>
<path d="M777.835 317.293C773.202 317.293 768.518 315.996 764.431 313.29C753.81 306.257 751.208 292.39 758.622 282.314L814.523 206.345C821.938 196.273 836.56 193.807 847.177 200.833C857.798 207.866 860.4 221.733 852.989 231.809L797.084 307.778C792.526 313.974 785.24 317.293 777.835 317.293Z" fill="#1B2159"/>
<path d="M777.869 317.293C770.913 317.293 764.028 314.369 759.399 308.773L659.695 188.2C651.701 178.532 653.487 164.55 663.678 156.97C673.868 149.39 688.61 151.078 696.603 160.744L796.307 281.319C804.301 290.986 802.519 304.969 792.326 312.551C788.034 315.744 782.932 317.293 777.869 317.293Z" fill="white"/>
<path d="M799.765 302.988C802.597 295.936 801.576 287.691 796.307 281.319L696.606 160.744C693.822 157.38 690.22 154.982 686.278 153.604C687.02 153.863 687.751 154.159 688.465 154.489C688.465 154.489 688.466 154.489 688.47 154.493C688.497 154.504 688.528 154.519 688.557 154.534C691.605 155.96 694.368 158.039 696.604 160.744L796.307 281.319C801.576 287.691 802.597 295.936 799.765 302.988Z" fill="url(#paint0_linear)"/>
<path d="M426.415 556.789C434.506 552.305 443.465 550.03 453.05 550.03C460.007 550.03 466.789 551.348 473.203 553.943C479.623 556.549 485.53 560.323 490.867 565.246C493.286 566.68 495.918 566.628 497.642 564.703C498.215 563.882 498.511 563.043 498.511 562.2C498.511 560.805 497.848 559.611 496.604 558.698C490.496 553.028 483.657 548.679 476.272 545.78C468.883 542.882 460.942 541.414 452.667 541.414C441.081 541.414 430.428 544.201 420.998 549.697C411.58 555.192 404.091 562.6 398.747 571.716C393.4 580.836 390.689 590.723 390.689 601.102C390.689 611.73 393.495 621.712 399.036 630.768C404.576 639.825 412.192 647.14 421.67 652.508C431.154 657.885 441.648 660.612 452.857 660.612C469.92 660.612 484.639 654.915 496.61 643.681C497.745 642.606 498.321 641.428 498.321 640.183C498.321 639.09 498.016 638.173 497.45 637.496C496.815 636.599 495.739 636.142 494.252 636.142C492.972 636.142 491.758 636.548 490.567 637.402C480.359 646.962 467.67 651.811 452.857 651.811C443.027 651.811 434.006 649.481 426.046 644.878C418.074 640.27 411.7 634.015 407.098 626.283C402.494 618.553 400.157 610.083 400.157 601.102C400.157 591.768 402.524 583.085 407.191 575.292C411.856 567.503 418.326 561.279 426.415 556.789Z" fill="white"/>
<path d="M617.116 543.067C616.282 542.8 615.592 542.671 615.008 542.671C614.129 542.671 613.278 542.919 612.481 543.401C611.654 543.897 611.084 544.583 610.803 545.394L566.404 645.43L522.192 545.567C521.321 543.647 519.778 542.671 517.606 542.671C517.379 542.671 516.981 542.719 515.812 543.089C513.925 543.914 512.968 545.196 512.968 546.891C512.968 547.707 513.183 548.529 513.589 549.295L561.257 655.754C562.506 658.259 564.238 659.53 566.402 659.53C567.689 659.53 568.754 659.212 569.569 658.578C570.349 657.97 571.02 657.012 571.56 655.732L619.616 548.707C619.978 547.666 620.029 547.295 620.029 547.073C620.029 545.283 619.044 543.905 617.116 543.067Z" fill="#1B2159"/>
<path d="M691.333 532.471C690.011 532.471 688.894 532.93 688.009 533.84C687.137 534.737 686.698 535.815 686.698 537.051V667.62C686.698 668.856 687.137 669.932 688.01 670.833C688.894 671.741 690.011 672.2 691.333 672.2C692.642 672.2 693.787 671.746 694.744 670.848C695.685 669.947 696.166 668.861 696.166 667.62V537.051C696.166 535.821 695.724 534.739 694.853 533.836C693.965 532.93 692.783 532.471 691.333 532.471Z" fill="white"/>
<path d="M867.914 541.772C866.602 541.772 865.459 542.226 864.51 543.123C863.564 544.018 863.084 545.042 863.084 546.172V596.883H785.02V546.172C785.02 545.048 784.541 544.023 783.596 543.123C782.649 542.226 781.502 541.772 780.191 541.772C778.87 541.772 777.752 542.233 776.866 543.141C775.995 544.034 775.554 545.055 775.554 546.172V654.769C775.554 655.891 775.995 656.91 776.866 657.804C777.75 658.71 778.867 659.171 780.191 659.171C781.504 659.171 782.651 658.717 783.596 657.82C784.541 656.922 785.02 655.895 785.02 654.769V605.323H863.084V654.769C863.084 655.901 863.564 656.925 864.51 657.82C865.454 658.717 866.533 659.171 867.726 659.171C869.038 659.171 870.181 658.717 871.126 657.82C872.073 656.922 872.55 655.895 872.55 654.769V546.172C872.55 545.055 872.108 544.034 871.237 543.141C870.354 542.233 869.237 541.772 867.914 541.772Z" fill="#1B2159"/>
<path d="M994.558 542.671C993.383 542.671 992.307 543.091 991.363 543.916C990.405 544.753 989.92 545.817 989.92 547.073V610.105C989.92 617.65 988.097 624.7 984.494 631.067C980.886 637.431 976.008 642.532 969.993 646.236C963.99 649.936 957.304 651.811 950.125 651.811C942.943 651.811 936.193 649.966 930.063 646.323C923.923 642.679 918.952 637.604 915.288 631.243C911.623 624.882 909.765 617.828 909.765 610.289V547.432C909.765 546.063 909.318 544.95 908.437 544.114C907.555 543.278 906.442 542.854 905.125 542.854C903.811 542.854 902.699 543.278 901.819 544.114C900.938 544.95 900.491 546.063 900.491 547.432V609.928C900.491 618.997 902.719 627.517 907.118 635.252C911.517 642.999 917.565 649.225 925.096 653.761C932.636 658.308 940.995 660.612 949.938 660.612C958.756 660.612 967.048 658.308 974.59 653.761C982.115 649.225 988.194 643.003 992.662 635.258C997.123 627.515 999.387 618.992 999.387 609.928V547.073C999.387 545.82 998.903 544.759 997.941 543.916C996.996 543.089 995.857 542.671 994.558 542.671Z" fill="white"/>
<path d="M1103.08 626.316C1103.08 630.62 1101.9 634.632 1099.57 638.239C1097.24 641.856 1094 644.782 1089.94 646.938C1085.88 649.097 1081.26 650.192 1076.2 650.192H1036.6V602.262H1075.82C1083.71 602.262 1090.3 604.567 1095.41 609.114C1100.5 613.657 1103.08 619.446 1103.08 626.316ZM1036.6 593.281V551.651H1075.44C1079.47 551.651 1083.19 552.65 1086.49 554.618C1089.79 556.593 1092.43 559.218 1094.34 562.415C1096.23 565.609 1097.2 569.052 1097.2 572.646C1097.2 576.241 1096.23 579.652 1094.34 582.785C1092.44 585.92 1089.77 588.481 1086.41 590.397C1083.04 592.311 1079.22 593.281 1075.06 593.281H1036.6ZM1105.47 607.287C1101.21 602.366 1095.8 598.931 1089.37 597.063C1094.17 595.238 1098.18 592.244 1101.32 588.138C1104.87 583.485 1106.66 578.214 1106.66 572.465C1106.66 567.102 1105.3 562.094 1102.59 557.575C1099.89 553.06 1096.14 549.411 1091.44 546.725C1086.74 544.034 1081.48 542.671 1075.82 542.671H1031.77C1030.46 542.671 1029.35 543.097 1028.46 543.934C1027.58 544.772 1027.13 545.828 1027.13 547.073V654.769C1027.13 656.017 1027.58 657.074 1028.46 657.909C1029.35 658.747 1030.46 659.171 1031.77 659.171H1076.39C1083.05 659.171 1089.19 657.752 1094.65 654.954C1100.1 652.152 1104.5 648.2 1107.71 643.207C1110.92 638.202 1112.55 632.582 1112.55 626.494C1112.55 619.183 1110.17 612.72 1105.47 607.287Z" fill="#1B2159"/>
</g>
<defs>
<linearGradient id="paint0_linear" x1="654.697" y1="234.762" x2="801.307" y2="234.762" gradientUnits="userSpaceOnUse">
<stop stop-color="#49BE71"/>
<stop offset="0.471264" stop-color="#49BE71"/>
<stop offset="1" stop-color="#49BE71"/>
</linearGradient>
<clipPath id="clip0">
<rect width="1476" height="800" fill="white"/>
</clipPath>
</defs>
</svg>
