<svg width="1115" height="671" viewBox="0 0 1115 671" fill="none" xmlns="http://www.w3.org/2000/svg">
<path d="M764.07 220.963C769.952 219.331 776.15 218.412 782.581 218.412C796.865 218.412 810.457 222.666 821.881 230.715C832.281 238.038 846.971 235.979 854.693 226.118C862.414 216.255 860.246 202.32 849.846 194.994C830.274 181.209 807.015 173.923 782.581 173.923C765.14 173.923 748.614 177.696 733.854 184.423L764.07 220.963Z" fill="#1B2159"/>
<path d="M819.64 332.843C808.7 339.9 795.884 343.63 782.581 343.63C746.182 343.63 716.575 315.545 716.575 281.022C716.575 277.422 716.967 273.914 717.585 270.477L683.659 229.45C674.751 244.758 669.668 262.334 669.668 281.022C669.668 340.076 720.32 388.121 782.581 388.121C805.331 388.121 827.266 381.725 846.019 369.629C856.73 362.72 859.505 348.885 852.223 338.727C844.941 328.568 830.352 325.932 819.64 332.843Z" fill="#1B2159"/>
<path d="M779.944 315.293C775.31 315.293 770.626 313.996 766.54 311.29C755.919 304.257 753.317 290.39 760.73 280.314L816.632 204.345C824.047 194.273 838.669 191.807 849.285 198.833C859.906 205.866 862.508 219.733 855.097 229.809L799.193 305.778C794.634 311.974 787.348 315.293 779.944 315.293Z" fill="#1B2159"/>
<path d="M779.977 315.293C773.021 315.293 766.137 312.369 761.507 306.773L661.804 186.2C653.81 176.532 655.596 162.55 665.787 154.97C675.976 147.39 690.718 149.078 698.712 158.744L798.416 279.319C806.41 288.986 804.628 302.969 794.435 310.551C790.143 313.744 785.04 315.293 779.977 315.293Z" fill="white"/>
<path d="M801.874 300.988C804.706 293.936 803.684 285.691 798.416 279.319L698.714 158.744C695.931 155.38 692.328 152.982 688.386 151.604C689.128 151.863 689.859 152.159 690.574 152.489C690.574 152.489 690.574 152.489 690.578 152.493C690.606 152.504 690.636 152.519 690.666 152.534C693.714 153.96 696.477 156.039 698.712 158.744L798.416 279.319C803.684 285.691 804.706 293.936 801.874 300.988Z" fill="url(#paint0_linear)"/>
<defs>
<linearGradient id="paint0_linear" x1="656.806" y1="232.762" x2="803.416" y2="232.762" gradientUnits="userSpaceOnUse">
<stop stop-color="#49BE71"/>
<stop offset="0.471264" stop-color="#49BE71"/>
<stop offset="1" stop-color="#49BE71"/>
</linearGradient>
</defs>
</svg>
